<?xml version="1.0" standalone="no"?>
<!DOCTYPE svg PUBLIC "-//W3C//DTD SVG 20010904//EN"
 "http://www.w3.org/TR/2001/REC-SVG-20010904/DTD/svg10.dtd">
<svg version="1.0" xmlns="http://www.w3.org/2000/svg"
 width="260.000000pt" height="260.000000pt" viewBox="0 0 260.000000 260.000000"
 preserveAspectRatio="xMidYMid meet">
<metadata>
Created by potrace 1.11, written by Peter Selinger 2001-2013
</metadata>
<g transform="translate(0.000000,260.000000) scale(0.100000,-0.100000)"
fill="#000000" stroke="none">
<path d="M171 2583 c-26 -9 -65 -36 -91 -62 -85 -85 -80 -3 -80 -1216 0 -1217
-5 -1141 80 -1225 84 -85 8 -80 1226 -80 1212 0 1130 -5 1214 80 85 84 80 2
80 1214 0 1216 5 1142 -78 1225 -87 87 -7 81 -1231 80 -948 -1 -1081 -3 -1120
-16z"/>
</g>
</svg>
